<svg width="37" height="32" viewBox="0 0 37 32" fill="none" xmlns="http://www.w3.org/2000/svg">
  <path
    d="M5.16706 8.32201H0.649109V8.34907V9.78306V25.2321H1.38163H2.2755H5.16713C7.07519 25.2321 8.6363 23.6615 8.6363 21.7418V11.8122C8.6363 9.89258 7.07513 8.32201 5.16706 8.32201ZM7.18405 21.7418C7.18405 22.8607 6.27923 23.771 5.16706 23.771H2.27543V9.783H5.16706C6.27923 9.783 7.18405 10.6933 7.18405 11.8122V21.7418Z"
    fill="#111111" />
  <path d="M13.719 16.6417H10.3305V15.6136H13.719V16.6417Z" fill="#111111" />
  <path d="M17.2278 25.2185H15.6014V8.33554H17.2278V25.2185Z" fill="#111111" />
  <path
    d="M24.5838 8.32201H20.0657V8.34907V9.78306V25.2321H20.7983H21.6921H24.5838C26.4918 25.2321 28.0529 23.6615 28.0529 21.7418V11.8122C28.0529 9.89258 26.4918 8.32201 24.5838 8.32201ZM26.6007 21.7418C26.6007 22.8607 25.6959 23.771 24.5837 23.771H21.6921V9.783H24.5837C25.6959 9.783 26.6007 10.6933 26.6007 11.8122V21.7418Z"
    fill="#111111" />
  <path
    d="M25.2435 31.3469L24.3326 30.9719C24.5624 30.4069 25.091 29.9549 25.9036 29.6282C26.4853 29.3944 27.0482 29.2946 27.2068 29.2696C27.2449 29.2635 27.2772 29.2598 27.3174 29.2569C27.5904 29.2368 30.0324 29.0543 31.5729 28.8329C31.9481 28.779 32.2181 28.6239 32.3982 28.3589C32.7098 27.9008 32.6882 27.2004 32.6305 26.9513C32.4816 26.309 32.4691 25.7341 32.5932 25.2427C32.635 25.0765 32.715 24.9358 32.7715 24.8444C33.0337 24.4196 32.9694 24.2449 32.9177 24.1045C32.754 23.6593 32.8274 23.1552 33.1142 22.7561C33.3041 22.4921 33.2365 22.2175 33.1009 21.7547L33.0812 21.6799C32.9166 20.8394 33.2772 20.369 33.6088 20.1223C33.9698 19.8538 34.4359 19.739 34.8472 19.6378L34.9091 19.6225C35.0788 19.582 35.3657 19.491 35.4258 19.3248C35.4937 19.137 35.3325 18.7892 35.2023 18.6132L35.9871 18.0157C36.0532 18.1031 36.6253 18.8923 36.3527 19.6577C36.2394 19.9759 35.937 20.3951 35.14 20.585L35.0812 20.5996C34.1251 20.8349 33.952 20.9755 34.0428 21.4674L34.045 21.4746C34.1922 21.9772 34.3939 22.6656 33.9118 23.3363C33.8164 23.4693 33.7905 23.6239 33.8408 23.7609C33.9726 24.1193 34.0652 24.6257 33.6075 25.3669C33.5614 25.4415 33.55 25.4752 33.5472 25.4861C33.4622 25.8228 33.4764 26.24 33.5891 26.7266C33.6676 27.0658 33.7528 28.1207 33.2106 28.918C32.8755 29.4109 32.3572 29.7203 31.712 29.8131C30.1388 30.0392 27.6655 30.2241 27.3886 30.2445C27.3779 30.2453 27.3704 30.2461 27.3601 30.2477C26.7425 30.3451 25.5067 30.6999 25.2435 31.3469Z"
    fill="#111111" />
  <path
    d="M24.8968 1.7222C24.599 1.65889 24.4215 1.63553 24.4197 1.63533L24.5441 0.653061C24.5527 0.654183 24.7588 0.680786 25.1004 0.753466L24.8968 1.7222Z"
    fill="#111111" />
  <path
    d="M33.6911 16.4643C33.4775 16.1047 33.2978 15.7694 33.1568 15.4676L34.0476 15.0465C34.1747 15.3187 34.339 15.6248 34.5359 15.9564L33.6911 16.4643ZM32.8054 14.2707C32.7947 14.1529 32.7893 14.0285 32.7893 13.9008C32.7893 13.6431 32.8114 13.3643 32.855 13.0721L33.8283 13.219C33.7919 13.4628 33.7735 13.6921 33.7735 13.9009C33.7735 13.9985 33.7776 14.0926 33.7856 14.1805L32.8054 14.2707ZM34.057 12.1911L33.0941 11.9859C33.1159 11.8825 33.1269 11.7789 33.1269 11.6781C33.1269 11.6096 33.1218 11.5406 33.1116 11.4728C33.0957 11.3665 33.0762 11.2403 33.0526 11.0928L34.0243 10.9351C34.0486 11.0866 34.0686 11.2161 34.0849 11.325C34.1024 11.4413 34.1112 11.5602 34.1112 11.678C34.1112 11.8478 34.0929 12.0203 34.057 12.1911ZM32.8731 10.0329C32.8144 9.70149 32.7491 9.34482 32.6792 8.97271L33.6462 8.7886C33.7168 9.16408 33.7827 9.52438 33.842 9.85926L32.8731 10.0329ZM32.4381 7.98034C32.3343 7.65312 32.2111 7.33197 32.0721 7.02587L32.9674 6.61454C33.1226 6.95636 33.2599 7.31454 33.3758 7.67906L32.4381 7.98034ZM31.5943 6.12532C31.4181 5.83764 31.2212 5.55709 31.0091 5.29132L31.7766 4.67139C32.0141 4.96898 32.2346 5.28333 32.4322 5.60567L31.5943 6.12532ZM30.3256 4.53343C30.0865 4.29796 29.8278 4.07048 29.5565 3.85739L30.1623 3.07699C30.4623 3.31266 30.7489 3.56469 31.0141 3.82591L30.3256 4.53343ZM28.7159 3.26533C28.4306 3.08524 28.1284 2.91414 27.8178 2.75677L28.2603 1.87233C28.5984 2.04357 28.9277 2.23005 29.2391 2.42657L28.7159 3.26533ZM26.8743 2.32993C26.5553 2.2018 26.2262 2.08528 25.8964 1.98369L26.1845 1.03687C26.5402 1.14645 26.8951 1.27208 27.2392 1.41024L26.8743 2.32993Z"
    fill="#111111" />
  <path
    d="M34.6018 17.8505C34.5966 17.8434 34.4719 17.6734 34.2891 17.4034L35.1024 16.8459C35.2739 17.099 35.3923 17.2608 35.3936 17.2624L34.6018 17.8505Z"
    fill="#111111" />
</svg>