<svg width="24" height="25" viewBox="0 0 24 25" fill="none" xmlns="http://www.w3.org/2000/svg">
  <path fill-rule="evenodd" clip-rule="evenodd"
    d="M4 9.5C4.41421 9.5 4.75 9.83579 4.75 10.25V11.25C4.75 15.2541 7.99594 18.5 12 18.5C16.0041 18.5 19.25 15.2541 19.25 11.25V10.25C19.25 9.83579 19.5858 9.5 20 9.5C20.4142 9.5 20.75 9.83579 20.75 10.25V11.25C20.75 15.8298 17.2314 19.5879 12.75 19.9683V22.25C12.75 22.6642 12.4142 23 12 23C11.5858 23 11.25 22.6642 11.25 22.25V19.9683C6.7686 19.5879 3.25 15.8298 3.25 11.25V10.25C3.25 9.83579 3.58579 9.5 4 9.5Z"
    fill="#FBFBFF" />
  <path fill-rule="evenodd" clip-rule="evenodd"
    d="M12 2.5C8.82436 2.5 6.25 5.07436 6.25 8.25V11.25C6.25 14.4256 8.82436 17 12 17C15.1756 17 17.75 14.4256 17.75 11.25V8.25C17.75 5.07436 15.1756 2.5 12 2.5ZM14 12C14.4142 12 14.75 11.6642 14.75 11.25C14.75 10.8358 14.4142 10.5 14 10.5H10C9.58579 10.5 9.25 10.8358 9.25 11.25C9.25 11.6642 9.58579 12 10 12H14ZM13.75 8.25C13.75 8.66421 13.4142 9 13 9H11C10.5858 9 10.25 8.66421 10.25 8.25C10.25 7.83579 10.5858 7.5 11 7.5H13C13.4142 7.5 13.75 7.83579 13.75 8.25Z"
    fill="#FBFBFF" />
</svg>